<svg width="20" height="20" viewBox="0 0 20 20" fill="none" xmlns="http://www.w3.org/2000/svg">
<path d="M5.9375 2.5C4.03902 2.5 2.5 4.03902 2.5 5.9375C2.5 7.83598 4.03902 9.375 5.9375 9.375H8C8.75939 9.375 9.375 8.75939 9.375 8V5.9375C9.375 4.03902 7.83598 2.5 5.9375 2.5Z" fill="white" fill-opacity="0.1"/>
<path d="M5.9375 10.625C4.03902 10.625 2.5 12.164 2.5 14.0625C2.5 15.961 4.03902 17.5 5.9375 17.5C7.83598 17.5 9.375 15.961 9.375 14.0625V12C9.375 11.2406 8.75939 10.625 8 10.625H5.9375Z" fill="white" fill-opacity="0.1"/>
<path d="M10.625 5.9375C10.625 4.03902 12.164 2.5 14.0625 2.5C15.961 2.5 17.5 4.03902 17.5 5.9375C17.5 7.83598 15.961 9.375 14.0625 9.375H12C11.2406 9.375 10.625 8.75939 10.625 8V5.9375Z" fill="white" fill-opacity="0.1"/>
<path d="M12 10.625C11.2406 10.625 10.625 11.2406 10.625 12V14.0625C10.625 15.961 12.164 17.5 14.0625 17.5C15.961 17.5 17.5 15.961 17.5 14.0625C17.5 12.164 15.961 10.625 14.0625 10.625H12Z" fill="white" fill-opacity="0.1"/>
<path fill-rule="evenodd" clip-rule="evenodd" d="M2.5 5.9375C2.5 4.03902 4.03902 2.5 5.9375 2.5C7.83598 2.5 9.375 4.03902 9.375 5.9375V8C9.375 8.75939 8.75939 9.375 8 9.375H5.9375C4.03902 9.375 2.5 7.83598 2.5 5.9375ZM8.125 5.9375V8C8.125 8.06904 8.06904 8.125 8 8.125H5.9375C4.72938 8.125 3.75 7.14562 3.75 5.9375C3.75 4.72938 4.72938 3.75 5.9375 3.75C7.14562 3.75 8.125 4.72938 8.125 5.9375Z" fill="white"/>
<path fill-rule="evenodd" clip-rule="evenodd" d="M2.5 14.0625C2.5 12.164 4.03902 10.625 5.9375 10.625H8C8.75939 10.625 9.375 11.2406 9.375 12V14.0625C9.375 15.961 7.83598 17.5 5.9375 17.5C4.03902 17.5 2.5 15.961 2.5 14.0625ZM5.9375 11.875H8C8.06904 11.875 8.125 11.931 8.125 12V14.0625C8.125 15.2706 7.14562 16.25 5.9375 16.25C4.72938 16.25 3.75 15.2706 3.75 14.0625C3.75 12.8544 4.72938 11.875 5.9375 11.875Z" fill="white"/>
<path fill-rule="evenodd" clip-rule="evenodd" d="M14.0625 2.5C12.164 2.5 10.625 4.03902 10.625 5.9375V8C10.625 8.75939 11.2406 9.375 12 9.375H14.0625C15.961 9.375 17.5 7.83598 17.5 5.9375C17.5 4.03902 15.961 2.5 14.0625 2.5ZM12 8.125H14.0625C15.2706 8.125 16.25 7.14562 16.25 5.9375C16.25 4.72938 15.2706 3.75 14.0625 3.75C12.8544 3.75 11.875 4.72938 11.875 5.9375V8C11.875 8.06904 11.931 8.125 12 8.125Z" fill="white"/>
<path fill-rule="evenodd" clip-rule="evenodd" d="M10.625 12C10.625 11.2406 11.2406 10.625 12 10.625H14.0625C15.961 10.625 17.5 12.164 17.5 14.0625C17.5 15.961 15.961 17.5 14.0625 17.5C12.164 17.5 10.625 15.961 10.625 14.0625V12ZM12 11.875H14.0625C15.2706 11.875 16.25 12.8544 16.25 14.0625C16.25 15.2706 15.2706 16.25 14.0625 16.25C12.8544 16.25 11.875 15.2706 11.875 14.0625V12C11.875 11.931 11.931 11.875 12 11.875Z" fill="white"/>
</svg>
